<svg width="31" height="30" viewBox="0 0 31 30" fill="none" xmlns="http://www.w3.org/2000/svg">
<path d="M13.3527 9.99062C13.3527 11.2273 14.3552 12.2299 15.5919 12.2299C16.8286 12.2299 17.8311 11.2273 17.8311 9.99062C17.8311 8.75396 16.8286 7.7514 15.5919 7.7514C14.3552 7.7514 13.3527 8.75396 13.3527 9.99062Z" fill="#999999"/>
<path fill-rule="evenodd" clip-rule="evenodd" d="M15.5 30C23.7843 30 30.5 23.2843 30.5 15C30.5 6.71573 23.7843 0 15.5 0C7.21572 0 0.5 6.71573 0.5 15C0.5 23.2843 7.21572 30 15.5 30ZM10.175 9.99055C10.175 6.99892 12.6002 4.57364 15.5919 4.57364C18.5836 4.57364 21.0088 6.99892 21.0088 9.99055C21.0088 12.9822 18.5836 15.4077 15.5919 15.4077C12.6002 15.4077 10.175 12.9822 10.175 9.99055ZM21.0412 18.194C20.9724 18.2491 19.6729 19.2761 17.5043 19.7179L20.7777 22.9622C21.3534 23.5369 21.354 24.4695 20.7793 25.0451C20.2046 25.6207 19.2722 25.6216 18.6964 25.0467L15.5184 21.952L12.6319 25.0268C12.3429 25.3266 11.9575 25.4774 11.5716 25.4774C11.2035 25.4774 10.8351 25.3404 10.5493 25.0648C9.96372 24.5001 9.94677 23.5677 10.5114 22.9822L13.6185 19.735C11.3891 19.3036 10.0359 18.2499 9.96622 18.194C9.33165 17.6851 9.22971 16.7581 9.73862 16.1235C10.2475 15.4889 11.1744 15.387 11.8091 15.8958C11.8225 15.9067 13.2378 16.9699 15.5183 16.9715C17.7989 16.9699 19.1849 15.9067 19.1983 15.8958C19.833 15.387 20.7599 15.4889 21.2688 16.1235C21.7777 16.7581 21.6757 17.6851 21.0412 18.194Z" fill="#999999"/>
</svg>
